<svg width="19" height="24" viewBox="0 0 19 24" fill="none" xmlns="http://www.w3.org/2000/svg">
<path d="M8.60538 21.6523L8.36884 21.0469L8.60538 21.6523ZM3.02783 22.7234L2.70283 23.2863H2.70283L3.02783 22.7234ZM1.1666 17.3575L0.524012 17.4554L1.1666 17.3575ZM1.84076 13.7794L2.40368 14.1044L1.84076 13.7794ZM1.03756 15.4806L0.398794 15.3603L0.398794 15.3603L1.03756 15.4806ZM11.367 19.2794L11.93 19.6044L11.367 19.2794ZM10.2953 20.8256L10.7189 21.3186L10.2953 20.8256ZM7.06361 4.73316L6.5007 4.40816L7.06361 4.73316ZM16.027 9.90816L10.8041 18.9544L11.93 19.6044L17.1528 10.5582L16.027 9.90816ZM2.40368 14.1044L7.62653 5.05816L6.5007 4.40816L1.27784 13.4544L2.40368 14.1044ZM8.36884 21.0469C6.87229 21.6316 5.81538 22.0428 4.98973 22.2357C4.18108 22.4246 3.71971 22.3723 3.35283 22.1604L2.70283 23.2863C3.48058 23.7353 4.33036 23.7247 5.2855 23.5016C6.22364 23.2824 7.3832 22.8277 8.84191 22.2577L8.36884 21.0469ZM0.524012 17.4554C0.759815 19.0036 0.94577 20.2352 1.22502 21.1573C1.50934 22.096 1.92507 22.8372 2.70283 23.2863L3.35283 22.1604C2.98594 21.9486 2.70992 21.5752 2.46921 20.7804C2.22345 19.969 2.05111 18.8481 1.80919 17.2597L0.524012 17.4554ZM1.27784 13.4544C0.822343 14.2434 0.510738 14.7662 0.398794 15.3603L1.67632 15.601C1.7378 15.2747 1.90386 14.9701 2.40368 14.1044L1.27784 13.4544ZM1.80919 17.2597C1.65868 16.2714 1.61483 15.9273 1.67632 15.601L0.398794 15.3603C0.28685 15.9544 0.386844 16.5548 0.524012 17.4554L1.80919 17.2597ZM10.8041 18.9544C10.3043 19.8201 10.1236 20.1162 9.87172 20.3326L10.7189 21.3186C11.1775 20.9246 11.4745 20.3934 11.93 19.6044L10.8041 18.9544ZM8.84191 22.2577C9.69045 21.9262 10.2604 21.7127 10.7189 21.3186L9.87172 20.3326C9.61985 20.549 9.29994 20.6831 8.36884 21.0469L8.84191 22.2577ZM14.2518 3.28294C15.3903 3.94031 16.187 4.40184 16.7425 4.83056C17.2831 5.24775 17.5159 5.57541 17.6118 5.93307L18.8675 5.59661C18.6685 4.854 18.1925 4.30743 17.5367 3.80137C16.8959 3.30685 16.0085 2.7961 14.9018 2.15711L14.2518 3.28294ZM17.1528 10.5582C17.7918 9.4514 18.3049 8.56538 18.6126 7.81669C18.9275 7.05055 19.0665 6.33922 18.8675 5.59661L17.6118 5.93307C17.7076 6.29074 17.6698 6.69089 17.4102 7.3225C17.1435 7.97156 16.6843 8.76957 16.027 9.90816L17.1528 10.5582ZM14.9018 2.15711C13.795 1.51811 12.909 1.00498 12.1603 0.697266C11.3941 0.382381 10.6828 0.243465 9.9402 0.442446L10.2767 1.69815C10.6343 1.60231 11.0345 1.64008 11.6661 1.89967C12.3151 2.16643 13.1132 2.62557 14.2518 3.28294L14.9018 2.15711ZM7.62653 5.05816C8.2839 3.91957 8.74543 3.12294 9.17415 2.56738C9.59134 2.02677 9.919 1.79399 10.2767 1.69815L9.9402 0.442446C9.19759 0.641428 8.65102 1.1174 8.14496 1.77317C7.65043 2.414 7.13969 3.30139 6.5007 4.40816L7.62653 5.05816ZM16.9149 9.67025L7.38861 4.17025L6.73861 5.29608L16.2649 10.7961L16.9149 9.67025Z" fill="black" fill-opacity="0.5"/>
</svg>
