<svg width="55" height="56" viewBox="0 0 55 56" fill="none" xmlns="http://www.w3.org/2000/svg">
<path d="M51.9795 0H3.03455C2.22974 0 1.45789 0.31971 0.888798 0.888798C0.31971 1.45789 0 2.22973 0 3.03455V51.9841C0 52.7889 0.31971 53.5608 0.888798 54.1299C1.45789 54.699 2.22974 55.0187 3.03455 55.0187H29.3744V33.7162H22.2129V25.4108H29.3744V19.2857C29.3744 12.1802 33.7161 8.30999 40.056 8.30999C42.1954 8.30236 44.3337 8.41145 46.4612 8.63679V16.0644H42.0775C38.6274 16.0644 37.9598 17.7031 37.9598 20.1074V25.4108H46.1811L45.112 33.7162H37.9598V55.0233H51.9654C52.7699 55.0221 53.541 54.702 54.1098 54.1332C54.6787 53.5644 54.9988 52.7932 55 51.9888V3.03922C55.0012 2.23602 54.684 1.46508 54.1178 0.895388C53.5516 0.325692 52.7826 0.00370612 51.9795 0Z" fill="#F4F4F4"/>
</svg>
