<svg width="55" height="55" viewBox="0 0 55 55" fill="none" xmlns="http://www.w3.org/2000/svg">
<path d="M0 3.93938C0 1.76344 1.80812 0 4.03906 0H50.9609C53.1919 0 55 1.76344 55 3.93938V51.0606C55 53.2366 53.1919 55 50.9609 55H4.03906C1.80812 55 0 53.2366 0 51.0606V3.93938ZM16.9916 46.0419V21.2059H8.73813V46.0419H16.9916ZM12.8666 17.8131C15.7438 17.8131 17.5347 15.9088 17.5347 13.5231C17.4831 11.0859 15.7472 9.23313 12.9216 9.23313C10.0959 9.23313 8.25 11.0894 8.25 13.5231C8.25 15.9088 10.0409 17.8131 12.8116 17.8131H12.8666ZM29.7378 46.0419V32.1716C29.7378 31.4291 29.7928 30.6866 30.0128 30.1572C30.6075 28.6756 31.9653 27.1391 34.2478 27.1391C37.235 27.1391 38.4278 29.4147 38.4278 32.7559V46.0419H46.6812V31.7969C46.6812 24.1656 42.6113 20.6181 37.18 20.6181C32.8006 20.6181 30.8378 23.0244 29.7378 24.7191V24.805H29.6828L29.7378 24.7191V21.2059H21.4878C21.5909 23.5366 21.4878 46.0419 21.4878 46.0419H29.7378Z" fill="#F4F4F4"/>
</svg>
