<svg width="55" height="55" viewBox="0 0 55 55" fill="none" xmlns="http://www.w3.org/2000/svg">
<path d="M23.8661 22.0614C23.1511 22.5394 22.5372 23.1536 22.0595 23.8688C21.5819 24.5841 21.2498 25.3864 21.0822 26.23C20.7438 27.9338 21.096 29.7022 22.0614 31.1462C23.0268 32.5902 24.5263 33.5916 26.23 33.9301C27.9338 34.2685 29.7022 33.9163 31.1462 32.9509C32.5902 31.9855 33.5916 30.486 33.9301 28.7822C34.2685 27.0785 33.9163 25.3101 32.9509 23.8661C31.9855 22.422 30.486 21.4206 28.7822 21.0822C27.0785 20.7438 25.3101 21.096 23.8661 22.0614ZM41.3359 13.6641C40.6975 13.0257 39.9241 12.5223 39.077 12.1908C36.8549 11.3192 32.0056 11.356 28.875 11.3929C28.3717 11.3929 27.9051 11.4051 27.5 11.4051C27.0949 11.4051 26.6161 11.4051 26.1004 11.3929C22.9699 11.356 18.1451 11.3069 15.923 12.1908C15.0759 12.5223 14.3147 13.0257 13.6641 13.6641C13.0134 14.3025 12.5223 15.0759 12.1908 15.923C11.3192 18.1451 11.3683 23.0067 11.3929 26.1373C11.3929 26.6406 11.4051 27.1071 11.4051 27.5C11.4051 27.8929 11.4051 28.3594 11.3929 28.8627C11.3683 31.9933 11.3192 36.8549 12.1908 39.077C12.5223 39.9241 13.0257 40.6853 13.6641 41.3359C14.3025 41.9866 15.0759 42.4777 15.923 42.8092C18.1451 43.6808 22.9944 43.644 26.125 43.6071C26.6283 43.6071 27.0949 43.5949 27.5 43.5949C27.9051 43.5949 28.3839 43.5949 28.8996 43.6071C32.0301 43.644 36.8549 43.6931 39.077 42.8092C39.9241 42.4777 40.6853 41.9743 41.3359 41.3359C41.9866 40.6975 42.4777 39.9241 42.8092 39.077C43.6931 36.8672 43.644 32.0301 43.6071 28.8873C43.6071 28.3716 43.5949 27.8929 43.5949 27.4877C43.5949 27.0826 43.5949 26.6161 43.6071 26.0882C43.644 22.9576 43.6931 18.1205 42.8092 15.8984C42.4777 15.0513 41.9743 14.2902 41.3359 13.6395V13.6641ZM33.0982 19.1272C35.3188 20.612 36.8586 22.918 37.379 25.5381C37.8993 28.1582 37.3575 30.8776 35.8728 33.0982C34.388 35.3188 32.082 36.8586 29.4619 37.379C26.8418 37.8993 24.1224 37.3575 21.9018 35.8728C20.8023 35.1384 19.8581 34.1947 19.1233 33.0954C18.3885 31.9962 17.8774 30.763 17.6192 29.4662C17.361 28.1695 17.3607 26.8346 17.6184 25.5377C17.8761 24.2409 18.3867 23.0075 19.1211 21.9079C19.8555 20.8084 20.7992 19.8643 21.8984 19.1295C22.9977 18.3947 24.2309 17.8836 25.5276 17.6254C26.8244 17.3672 28.1593 17.3669 29.4561 17.6246C30.753 17.8823 31.9864 18.3929 33.0859 19.1272H33.0982ZM36.683 18.9676C36.3025 18.7098 35.9955 18.3415 35.8114 17.9118C35.6272 17.4821 35.5904 17.0156 35.6763 16.5491C35.7623 16.0826 35.9955 15.6775 36.3147 15.346C36.6339 15.0145 37.0636 14.7935 37.5179 14.7076C37.9721 14.6217 38.4509 14.6585 38.8806 14.8426C39.3103 15.0268 39.6786 15.3214 39.9364 15.702C40.1942 16.0826 40.3292 16.5368 40.3292 17.0033C40.3292 17.3103 40.2679 17.6172 40.1574 17.8996C40.0469 18.1819 39.8627 18.4397 39.654 18.6607C39.4453 18.8817 39.1752 19.0536 38.8929 19.1763C38.6105 19.2991 38.3036 19.3605 37.9967 19.3605C37.5301 19.3605 37.0759 19.2254 36.6953 18.9676H36.683ZM55 7.85714C55 3.52344 51.4766 0 47.1429 0H7.85714C3.52344 0 0 3.52344 0 7.85714V47.1429C0 51.4766 3.52344 55 7.85714 55H47.1429C51.4766 55 55 51.4766 55 47.1429V7.85714ZM43.8281 43.8281C41.5324 46.1239 38.7455 46.8482 35.6027 47.0078C32.3616 47.192 22.6384 47.192 19.3973 47.0078C16.2545 46.8482 13.4676 46.1239 11.1719 43.8281C8.87612 41.5324 8.15179 38.7455 8.00446 35.6027C7.82031 32.3616 7.82031 22.6384 8.00446 19.3973C8.16406 16.2545 8.87612 13.4676 11.1719 11.1719C13.4676 8.87612 16.2667 8.15179 19.3973 8.00446C22.6384 7.82031 32.3616 7.82031 35.6027 8.00446C38.7455 8.16406 41.5324 8.87612 43.8281 11.1719C46.1239 13.4676 46.8482 16.2545 46.9955 19.3973C47.1797 22.6261 47.1797 32.3371 46.9955 35.5904C46.8359 38.7333 46.1239 41.5201 43.8281 43.8158V43.8281Z" fill="#F4F4F4"/>
</svg>
