<svg width="216" height="132" viewBox="0 0 216 132" fill="none" xmlns="http://www.w3.org/2000/svg">
<path fill-rule="evenodd" clip-rule="evenodd" d="M179.381 11.7983C177.024 14.4375 170.629 21.5247 165.171 27.5478C159.712 33.5709 152.49 41.5469 149.121 45.272C145.752 48.9972 141.397 53.8121 139.444 55.9719C137.49 58.1314 135.133 60.7559 134.206 61.8042C130.179 66.3572 124.282 72.5522 123.975 72.5522C123.784 72.5522 123.646 62.0492 123.653 48.0001L123.665 23.4479L128.42 18.2379L133.175 13.028L130.28 10.1479L127.385 7.26791L125.418 9.34083C123.221 11.6572 111.44 24.6678 104.793 32.1181C102.409 34.7904 98.591 39.0127 96.3089 41.501C94.0268 43.9889 90.8039 47.5455 89.1468 49.404C87.4897 51.2628 82.826 56.4325 78.7832 60.8925C74.7404 65.3522 70.7326 69.8001 69.8773 70.7766C69.022 71.7534 68.1313 72.5522 67.8983 72.5522C67.5892 72.5522 67.4746 66.0415 67.4746 48.4591V24.366L70.7492 20.7086C72.5503 18.697 74.8636 16.1473 75.8905 15.043L77.7568 13.0348L74.9813 10.2454C73.4546 8.71131 72.0527 7.45605 71.8661 7.45605C71.6795 7.45605 70.7424 8.33767 69.7834 9.41533C68.8245 10.493 66.0746 13.4983 63.6723 16.0943C61.2703 18.6902 57.8778 22.4436 56.1332 24.4356C52.0636 29.083 37.3674 45.3319 31.5023 51.6688C29.0122 54.3592 26.8002 56.7508 26.5865 56.9837C26.3731 57.2163 23.7386 60.1734 20.7324 63.555C17.7262 66.9367 13.7825 71.2898 11.9683 73.2292C10.1544 75.1681 8.66992 76.9099 8.66992 77.0992C8.66992 77.3069 43.5886 77.4439 96.5 77.4439H184.33V75.3743V73.3048L182.54 73.2615C181.555 73.2374 180.495 73.1953 180.184 73.1675C179.689 73.1231 179.605 70.138 179.514 49.223C179.457 36.0814 179.505 24.9387 179.621 24.4612C179.737 23.9837 181.395 21.8972 183.306 19.8243C185.217 17.7514 187.408 15.3365 188.176 14.4571L189.572 12.859L186.62 9.92971L183.668 7L179.381 11.7983ZM121.002 46.0397V65.0572L117.892 64.9477L114.782 64.8385L114.684 49.1891L114.585 33.5397L117.486 30.2811C119.081 28.4889 120.525 27.0225 120.694 27.0225C120.864 27.0225 121.002 35.5802 121.002 46.0397ZM64.8359 46.4159V65.0572L61.7261 64.9477L58.6162 64.8385L58.4986 49.9029C58.4062 38.1216 58.4858 34.7716 58.8756 34.0424C59.3946 33.0716 64.2502 27.7751 64.6211 27.7751C64.7391 27.7751 64.8359 36.1635 64.8359 46.4159ZM176.791 46.4009V65.0267H173.587H170.383V49.6124V34.1982L171.584 32.774C173.528 30.4685 176.174 27.7751 176.494 27.7751C176.658 27.7751 176.791 36.1567 176.791 46.4009ZM111.955 50.9162V65.0267H108.939H105.924V54.016V43.0057L108.782 39.9056C110.353 38.2006 111.71 36.8058 111.797 36.8058C111.884 36.8058 111.955 43.1555 111.955 50.9162ZM55.7891 51.3083V65.0583L52.9144 64.9484L50.0394 64.8385L50.0258 54.4909C50.013 44.7618 50.1698 42.45 50.8431 42.45C50.9972 42.45 52.0357 41.3493 53.1504 40.0042C54.265 38.659 55.3149 37.5583 55.483 37.5583C55.6515 37.5583 55.7891 43.7459 55.7891 51.3083ZM167.744 51.2925V65.0267H164.729H161.713V54.2877V43.5491L164.243 40.8357C166.52 38.3944 167.366 37.5813 167.65 37.564C167.702 37.561 167.744 43.7387 167.744 51.2925ZM103.285 55.8229V65.0572L100.256 64.9477L97.2271 64.8385L97.1465 58.7662L97.0654 52.6941L98.9502 50.6604C99.9868 49.5421 101.216 48.1683 101.68 47.608C102.146 47.0477 102.697 46.589 102.906 46.589C103.15 46.589 103.285 49.8773 103.285 55.8229ZM47.1191 56.011V65.0572L44.0093 64.9477L40.8994 64.8385V59.1601V53.4821L43.6323 50.5618C45.1356 48.9558 46.3652 47.4895 46.3652 47.3036C46.3652 47.1173 46.5349 46.9653 46.7422 46.9653C46.9831 46.9653 47.1191 50.2314 47.1191 56.011ZM159.074 56.1992V65.0572L155.964 64.9477L152.854 64.8385L152.751 59.1417L152.647 53.4448L155.523 50.3932C157.105 48.715 158.551 47.3416 158.736 47.3416C158.926 47.3416 159.074 51.2297 159.074 56.1992ZM94.2383 60.6995V65.0267L91.9766 65.0831C90.7326 65.1143 89.5215 65.1565 89.2847 65.1772C88.5832 65.2385 88.0777 64.0871 88.3431 63.032C88.5836 62.0748 93.3883 56.3723 93.9541 56.3723C94.1105 56.3723 94.2383 58.3195 94.2383 60.6995ZM38.0723 60.8425V64.9364L35.7163 65.1177C31.1333 65.4711 30.978 64.4506 34.9375 60.0026C36.5302 58.2126 37.8872 56.7485 37.9532 56.7485C38.0187 56.7485 38.0723 58.5908 38.0723 60.8425ZM150.027 60.8541V64.9597L147.671 65.1042C146.376 65.1836 145.11 65.1828 144.859 65.1027C144.234 64.9036 143.882 63.6585 144.259 62.9854C144.774 62.0676 149.441 56.7692 149.745 56.7587C149.9 56.7531 150.027 58.5961 150.027 60.8541ZM29.5961 68.5073C29.9335 69.881 29.5403 72.6335 28.9602 72.9575C28.665 73.1223 27.2835 73.1411 25.8903 72.9989L23.3568 72.7404L25.6558 70.2005C28.0638 67.5398 29.2346 67.0368 29.5961 68.5073ZM38.0723 70.2946V72.9285H35.2451H32.418V70.5456C32.418 69.2346 32.5311 68.0493 32.6694 67.9116C32.8074 67.7735 34.0796 67.6606 35.4965 67.6606H38.0723V70.2946ZM47.0422 70.3886L47.1534 72.9285H43.9324H40.7109V70.5456C40.7109 69.2346 40.8304 68.0429 40.9767 67.8969C41.1229 67.7513 42.5222 67.6806 44.0866 67.7404L46.9307 67.8488L47.0422 70.3886ZM55.7122 70.3886L55.8234 72.9285H53.0113H50.1992L50.0726 70.45C50.0032 69.0867 50.0236 67.8947 50.1182 67.801C50.2128 67.7073 51.485 67.6798 52.9453 67.7396L55.6006 67.8488L55.7122 70.3886ZM64.7579 70.3431L64.8684 72.8378L62.7706 73.0993C61.6171 73.2431 60.1677 73.2502 59.5503 73.1148C58.4507 72.874 58.4277 72.8205 58.4277 70.5155C58.4277 69.2214 58.5472 68.0429 58.6935 67.8969C58.8397 67.7513 60.239 67.6806 61.8033 67.7404L64.6475 67.8488L64.7579 70.3431ZM85.7165 68.2559C86.0071 69.0122 86.0026 70.9828 85.7078 72.0819C85.4933 72.88 85.2868 72.9285 82.1034 72.9285H78.7263L81.0713 70.2946C82.8999 68.2405 83.6444 67.6606 84.4522 67.6606C85.0485 67.6606 85.5846 67.9131 85.7165 68.2559ZM94.2383 70.2645V72.8687L91.7858 73.131C88.7498 73.4553 88.207 73.1001 88.207 70.7882C88.207 68.0034 88.5802 67.6606 91.6128 67.6606H94.2383V70.2645ZM103.208 70.3886L103.319 72.9285H100.287H97.2539V70.2788V67.629L100.175 67.7389L103.097 67.8488L103.208 70.3886ZM111.878 70.3886L111.989 72.9285H108.957H105.924V70.5456C105.924 69.2346 106.044 68.0425 106.19 67.8965C106.337 67.7506 107.651 67.6798 109.111 67.7396L111.767 67.8488L111.878 70.3886ZM120.924 70.3367L121.034 72.8251L119.677 73.0444C118.931 73.1656 117.482 73.1652 116.457 73.044L114.594 72.8235V70.4929C114.594 69.2113 114.713 68.0429 114.859 67.8969C115.006 67.7513 116.405 67.6806 117.969 67.7404L120.813 67.8488L120.924 70.3367ZM141.349 68.3978C141.582 68.8331 141.644 69.9894 141.499 71.2198L141.254 73.3048H138.312C136.695 73.3048 135.289 73.1731 135.189 73.0121C134.913 72.5654 139.629 67.6606 140.335 67.6606C140.676 67.6606 141.132 67.9925 141.349 68.3978ZM149.949 70.3416C150.077 73.216 150.034 73.2457 146.164 72.9978L143.996 72.8589V70.8549C143.996 67.6764 144.06 67.6128 147.152 67.7393L149.839 67.8488L149.949 70.3416ZM158.998 70.4041L159.109 72.9594L155.982 72.8499L152.854 72.7404L152.739 70.7156C152.563 67.6411 152.594 67.6125 155.959 67.7389L158.886 67.8488L158.998 70.4041ZM167.667 70.3886L167.778 72.9285H164.746H161.713V70.5456C161.713 69.2346 161.833 68.0425 161.979 67.8965C162.126 67.7506 163.44 67.6798 164.9 67.7396L167.556 67.8488L167.667 70.3886ZM176.714 70.3886L176.825 72.9285H173.604H170.383V70.5456C170.383 69.2346 170.502 68.0429 170.649 67.8969C170.795 67.7513 172.194 67.6806 173.758 67.7404L176.603 67.8488L176.714 70.3886ZM0.251428 79.2C0.113086 79.3377 0 80.3536 0 81.4576V83.4643H96.2621H192.524L192.758 82.0533C192.887 81.2774 192.994 80.2614 192.996 79.7956L193 78.949H96.7514C43.8144 78.949 0.389392 79.0619 0.251428 79.2Z" fill="white"/>
<path fill-rule="evenodd" clip-rule="evenodd" d="M64.082 85.9102C64.082 86.2977 64.3289 86.4821 64.7416 86.4031C65.5363 86.2503 67.3509 84.8716 66.5322 84.7015C66.1907 84.6304 64.082 85.5485 64.082 85.9102ZM164.756 90.821C163.786 93.3262 163.323 95.0052 163.54 95.2223C163.758 95.4394 164.154 95.1297 164.58 94.4103C165.155 93.4387 165.501 93.2476 166.686 93.2476C167.782 93.2476 168.244 93.4609 168.721 94.1883C169.061 94.7057 169.573 95.129 169.861 95.129C170.527 95.129 170.522 95.0857 169.665 93.1637C169.27 92.2787 168.647 90.7924 168.279 89.8611C167.912 88.9298 167.322 87.8533 166.968 87.4691C166.352 86.8012 166.255 86.9479 164.756 90.821ZM8.93939 87.489C8.34192 87.644 8.27859 88.073 8.37396 91.3022L8.48139 94.9408L11.2143 95.0515C13.4368 95.1414 13.9472 95.0571 13.9472 94.5999C13.9472 94.1792 13.4006 94.0092 11.7797 93.9249C9.64769 93.8139 9.61225 93.7936 9.61225 92.6832C9.61225 91.5867 9.66917 91.5509 11.5913 91.4407C12.6799 91.3779 13.5703 91.1664 13.5703 90.9703C13.5703 90.6388 12.9355 90.5301 10.5546 90.4552C9.87348 90.4338 9.61225 90.217 9.61225 89.6729C9.61225 89.0303 9.90138 88.9038 11.5913 88.8067C13.2623 88.7108 13.5703 88.5787 13.5703 87.9601C13.5703 87.3212 13.3162 87.2328 11.5913 87.2708C10.5026 87.2949 9.30956 87.3931 8.93939 87.489ZM16.1185 87.6975C15.7822 87.9564 15.4754 88.4218 15.4366 88.7322C15.2443 90.2652 15.5413 90.6622 17.6225 91.6522C18.8389 92.2305 19.79 92.9308 19.79 93.2476C19.79 94.1548 17.7601 94.1736 16.5463 93.2777C15.3058 92.3622 15.0781 92.3182 15.0781 92.994C15.0781 93.9456 16.7755 95.129 18.1412 95.129C19.5039 95.129 21.1093 94.0291 21.1093 93.0956C21.1093 92.1218 19.6309 90.7416 18.096 90.2825C16.967 89.945 16.5727 89.6421 16.6605 89.1804C16.8249 88.3195 18.3093 88.1641 19.4217 88.8914C20.4787 89.583 20.7324 89.6248 20.7324 89.1085C20.7324 87.635 17.4891 86.6431 16.1185 87.6975ZM23.8607 87.7927C23.4159 88.1039 22.8524 88.9614 22.6085 89.6985C21.32 93.596 24.8894 96.7131 27.7791 94.2146C28.5794 93.5223 28.7313 93.193 28.4034 92.86C28.0735 92.5248 27.7806 92.6087 27.1783 93.21C26.2291 94.1574 24.7895 94.2353 24.0767 93.3778C23.3873 92.5481 23.477 89.5943 24.2143 88.8583C24.8894 88.184 26.8153 88.4523 27.5375 89.3207C27.7848 89.618 28.1357 89.8611 28.3174 89.8611C28.9273 89.8611 28.6567 89.0825 27.723 88.1509C26.6645 87.0939 25.0711 86.9464 23.8607 87.7927ZM31.4239 87.9496C30.4581 88.5377 30.2094 88.9682 30.0665 90.3002C29.7465 93.2878 31.053 95.129 33.493 95.129C35.1331 95.129 35.7709 94.7915 36.3899 93.5968C37.3345 91.7737 37.1065 89.5917 35.8395 88.327C34.5383 87.0281 33.1353 86.908 31.4239 87.9496ZM46.5816 89.2026C46.1013 90.2889 45.5909 91.7165 45.4473 92.375C45.0884 94.0174 44.6286 94.2534 42.1245 94.0803L39.957 93.9305V90.7393C39.957 87.9996 39.8707 87.5654 39.3467 87.67C38.8386 87.7712 38.7285 88.4064 38.687 91.47L38.6376 95.1485L42.1501 95.0962C45.4827 95.0462 45.6799 94.9977 46.0044 94.1458C46.2864 93.4056 46.6121 93.2476 47.8549 93.2476C49.048 93.2476 49.4924 93.4444 49.9809 94.1883C50.6692 95.237 51.2656 95.4176 51.2656 94.5773C51.2656 93.4587 48.3751 87.2271 47.8564 87.2271C47.6355 87.2271 47.0618 88.1163 46.5816 89.2026ZM54.6581 87.7915C54.6581 88.1663 55.0336 88.356 55.7747 88.356H56.8916L56.9998 91.8365C57.1378 96.2646 57.7978 96.2672 58.0507 91.8403C58.1974 89.2767 58.3647 88.5328 58.8046 88.4933C59.1156 88.4655 59.5823 88.4233 59.8413 88.3992C60.1006 88.3755 60.3124 88.102 60.3124 87.7915C60.3124 87.34 59.747 87.2271 57.4853 87.2271C55.2236 87.2271 54.6581 87.34 54.6581 87.7915ZM61.965 87.7697C61.8681 88.0214 61.8384 89.738 61.899 91.5841L62.0087 94.9408L64.7416 95.0515C67.0019 95.1429 67.4746 95.0616 67.4746 94.5811C67.4746 94.1221 67.0004 94.0001 65.2128 94.0001H62.9511V92.6354V91.2706L64.8359 91.4512C66.2581 91.5878 66.7206 91.5069 66.7206 91.1227C66.7206 90.7619 66.165 90.6136 64.811 90.6136C62.95 90.6136 62.904 90.5873 63.0205 89.5789C63.1351 88.5844 63.2165 88.5471 65.1186 88.6261C66.8379 88.6972 67.0976 88.6145 67.0976 87.9959C67.0976 87.3675 66.8047 87.2851 64.6191 87.2979C63.0325 87.3069 62.0777 87.4766 61.965 87.7697ZM70.0228 88.1102C68.2311 89.7678 68.3121 93.2254 70.1732 94.5265C71.9279 95.7532 74.6367 94.9017 74.6367 93.1238C74.6367 92.2753 74.167 92.331 73.5933 93.2476C73.0275 94.1522 71.1759 94.2605 70.4849 93.4293C70.2241 93.1155 70.0103 92.1872 70.0103 91.3662C70.0103 90.5451 70.2241 89.6169 70.4849 89.3031C71.0172 88.6626 72.9588 88.5294 73.3173 89.1085C73.6713 89.6801 74.6367 89.5578 74.6367 88.9418C74.6367 88.1814 73.1522 87.2271 71.9693 87.2271C71.4235 87.2271 70.5479 87.6245 70.0228 88.1102ZM76.7729 87.4781C76.6345 87.6158 76.5214 89.4062 76.5214 91.4565C76.5214 94.8057 76.5885 95.1707 77.1811 95.0526C77.7439 94.9401 77.8212 94.5702 77.7066 92.5323C77.5467 89.6857 77.8159 89.7335 79.7734 92.8995C81.8418 96.2446 82.3642 95.8966 82.3642 91.1728C82.3642 88.0835 82.2636 87.4153 81.7988 87.4153C81.3457 87.4153 81.2545 87.877 81.34 89.7373C81.3984 91.0144 81.2955 92.1522 81.1112 92.2659C80.9265 92.3799 80.3027 91.5889 79.7244 90.5087C78.1834 87.6282 77.4137 86.8381 76.7729 87.4781ZM84.6908 87.5093C84.5984 87.6647 84.4024 89.3377 84.255 91.2273C84.0635 93.6886 84.1118 94.7399 84.4261 94.9337C84.6674 95.0827 84.9365 95.1324 85.0244 95.0447C85.3403 94.7294 85.485 87.2271 85.1755 87.2271C85.0014 87.2271 84.7831 87.3539 84.6908 87.5093ZM88.8666 87.6335C87.9122 88.1885 87.0761 89.9973 87.0761 91.5069C87.0761 93.3947 88.6261 95.129 90.3138 95.129C92.041 95.129 93.8402 93.368 92.7809 92.7144C92.6011 92.6034 92.1507 92.8476 91.7801 93.2566C90.3379 94.8471 88.207 93.6957 88.207 91.3263C88.207 89.8186 89.1 88.3552 90.019 88.3575C90.3699 88.3582 91.2083 88.6942 91.8823 89.1044C93.0961 89.843 93.1074 89.8434 93.1074 89.1127C93.1074 88.6765 92.6528 88.1407 91.9954 87.8013C90.7126 87.1391 89.8011 87.0902 88.8666 87.6335ZM95.8697 90.8823C95.0758 92.8927 94.3702 94.6707 94.3012 94.8332C93.9615 95.6324 95.4437 95.0007 95.8147 94.1883C96.1769 93.3943 96.5003 93.2476 97.8879 93.2476C99.2755 93.2476 99.5985 93.3943 99.9611 94.1883C100.197 94.7057 100.618 95.129 100.896 95.129C101.552 95.129 101.576 95.2554 100.288 91.9163C99.0953 88.8252 98.1966 87.2271 97.6515 87.2271C97.4649 87.2271 96.6632 88.8718 95.8697 90.8823ZM105.791 87.7042C105.24 88.1069 105.155 88.707 105.248 91.5611L105.358 94.9408L106.635 95.0628C109.67 95.3521 111.201 94.0788 111.201 91.2665C111.201 89.735 111.016 89.2429 110.099 88.327C108.892 87.1221 106.969 86.8441 105.791 87.7042ZM113.353 87.4619C113.206 87.6087 113.086 89.3937 113.086 91.429V95.129H115.725C117.819 95.129 118.363 95.0123 118.363 94.5646C118.363 94.1311 117.881 94.0001 116.29 94.0001H114.217V92.6832V91.3662H116.29C117.43 91.3662 118.363 91.2164 118.363 91.0332C118.363 90.8503 117.43 90.5839 116.29 90.4417C114.584 90.2291 114.217 90.0549 114.217 89.4577C114.217 88.8282 114.494 88.7322 116.318 88.7322C118.115 88.7322 118.4 88.637 118.293 88.0738C118.192 87.5488 117.707 87.3931 115.894 87.3054C114.643 87.2448 113.5 87.3152 113.353 87.4619ZM123.958 88.2995C122.914 89.2308 122.752 89.6252 122.727 91.2988C122.686 94.0461 123.54 94.8054 127.098 95.1847C129.93 95.4868 130.465 95.3939 129.787 94.7169C129.544 94.475 129.463 93.371 129.579 91.9219C129.763 89.6376 129.718 89.4735 128.62 88.377C127.115 86.8749 125.584 86.8493 123.958 88.2995ZM131.314 87.7964C131.194 88.1099 131.162 89.5367 131.242 90.9673C131.422 94.1382 132.125 95.129 134.195 95.129C136.305 95.129 136.986 94.1371 137.126 90.8627C137.237 88.2882 136.829 86.7304 136.207 87.3505C136.048 87.5101 135.826 89.0291 135.716 90.7261C135.517 93.7732 135.501 93.8135 134.455 93.9332C132.681 94.1363 132.311 93.4895 132.311 90.1914C132.311 87.4168 131.868 86.3545 131.314 87.7964ZM141.228 87.5093C140.945 87.9699 138.342 94.6244 138.342 94.8874C138.342 95.5323 139.403 95.0168 139.781 94.1883C140.415 92.7987 142.708 92.8517 143.854 94.2823C145.154 95.9056 145.364 94.9717 144.355 92.0548C143.007 88.1588 141.857 86.487 141.228 87.5093ZM153.124 91.0174C153.2 93.7529 153.373 94.9265 153.716 95.0402C154.095 95.1655 154.177 94.3546 154.093 91.3387C154.017 88.6032 153.844 87.4296 153.501 87.3159C153.122 87.1906 153.04 88.0015 153.124 91.0174ZM156.907 87.4762C156.574 87.6102 156.436 88.7646 156.436 91.3974V95.129H157.968C159.608 95.129 160.865 94.6202 161.607 93.6566C162.308 92.7437 162.213 89.2857 161.466 88.5396C160.354 87.4299 158.244 86.9378 156.907 87.4762ZM171.675 87.7272C171.569 88.0023 171.532 89.738 171.592 91.5841L171.702 94.9408L173.501 95.056C175.072 95.1564 175.441 95.0296 176.422 94.0502C177.368 93.1061 177.545 92.6331 177.545 91.0524C177.545 89.4186 177.395 89.0494 176.385 88.2013C175.517 87.4725 174.803 87.2271 173.546 87.2271C172.497 87.2271 171.795 87.4149 171.675 87.7272ZM179.22 87.7099C179.111 87.9944 179.071 89.738 179.131 91.5841L179.241 94.9408L181.974 95.0515C184.234 95.1429 184.707 95.0616 184.707 94.5811C184.707 94.1277 184.252 94.0001 182.634 94.0001C180.582 94.0001 180.561 93.9889 180.561 92.8713C180.561 91.7677 180.602 91.7425 182.445 91.7425C183.791 91.7425 184.33 91.595 184.33 91.2266C184.33 90.8917 183.669 90.623 182.445 90.4609C180.927 90.2599 180.561 90.0714 180.561 89.4916C180.561 88.8884 180.881 88.7533 182.54 88.6577C183.997 88.5742 184.519 88.3951 184.519 87.9797C184.519 87.1914 179.517 86.9366 179.22 87.7099ZM146.635 90.1903C146.635 91.613 146.742 93.3138 146.874 93.9697L147.113 95.1621L149.388 95.0515C152.347 94.9077 152.762 94.0871 149.958 93.9268L147.954 93.812L147.891 91.178C147.856 89.7294 147.813 88.3326 147.796 88.0738C147.78 87.8152 147.511 87.6034 147.2 87.6034C146.752 87.6034 146.635 88.1419 146.635 90.1903ZM35.3393 89.209C35.9986 89.7237 35.9273 92.1609 35.2236 93.1637C34.4915 94.2075 32.7794 94.2699 31.8872 93.286C30.9052 92.2027 31.1973 89.4521 32.3553 88.8786C33.2649 88.4286 34.5175 88.5671 35.3393 89.209ZM127.787 89.1085C128.911 90.2302 128.74 93.2476 127.553 93.2476C127.262 93.2476 126.695 93.4519 126.295 93.7014C124.368 94.9028 122.964 90.2641 124.855 88.9418C125.983 88.1535 126.881 88.2043 127.787 89.1085ZM175.907 89.1567C176.602 89.7328 176.546 92.1402 175.812 93.1851C175.363 93.8256 174.913 94.0133 174.032 93.9271C172.899 93.8165 172.855 93.7477 172.886 92.1187C172.962 88.0602 172.897 88.2371 174.211 88.4993C174.865 88.6299 175.628 88.9256 175.907 89.1567ZM109.68 89.46C109.895 89.8603 110.07 90.7653 110.07 91.4712C110.07 93.0771 109.025 94.1017 107.559 93.9343C106.549 93.8188 106.483 93.6995 106.373 91.7872C106.31 90.6738 106.347 89.5307 106.456 89.2474C106.771 88.429 109.213 88.59 109.68 89.46ZM160.507 89.1838C161.174 89.8502 161.064 92.5082 160.335 93.3119C159.731 93.9787 157.593 94.2891 157.54 93.7179C157.525 93.5625 157.428 92.6169 157.324 91.616C157.219 90.6151 157.226 89.557 157.338 89.2643C157.59 88.6099 159.874 88.552 160.507 89.1838ZM98.5683 90.4714C98.8819 91.2209 99.1386 91.8798 99.1386 91.9355C99.1386 91.9908 98.5449 92.1056 97.8193 92.1902C97.0937 92.2749 96.4999 92.2294 96.4999 92.089C96.4999 91.6601 97.6293 89.1085 97.8193 89.1085C97.9173 89.1085 98.2543 89.7219 98.5683 90.4714ZM167.727 91.6484C167.737 91.9073 167.504 92.1187 167.21 92.1187C166.916 92.1187 166.407 92.2215 166.079 92.3471C165.321 92.6373 165.324 92.0819 166.091 90.3194L166.7 88.9204L167.205 90.0492C167.483 90.6701 167.718 91.3899 167.727 91.6484ZM48.7396 90.8018L49.3687 92.1187H47.8447C47.0064 92.1187 46.4104 91.9739 46.5201 91.7967C46.6298 91.6194 46.8899 91.0268 47.0984 90.4797C47.6046 89.1507 47.9865 89.2255 48.7396 90.8018ZM142.717 90.8018C143.122 92.0954 143.111 92.1187 142.055 92.1187C140.896 92.1187 140.676 91.508 141.371 90.2125C141.931 89.168 142.248 89.3064 142.717 90.8018Z" fill="white"/>
<path fill-rule="evenodd" clip-rule="evenodd" d="M17.7603 99.3161C15.2076 99.7394 12.3066 101.297 10.9017 102.998C7.67082 106.911 7.36813 115.255 10.291 119.829C11.5998 121.877 12.6847 122.782 15.2114 123.937C17.0694 124.786 17.936 124.944 20.7326 124.944C26.0688 124.944 29.0354 123.228 31.1659 118.908C31.7246 117.774 32.0043 116.783 31.8132 116.616C31.4863 116.329 26.4574 114.695 25.9022 114.695C25.7506 114.695 25.3541 115.376 25.0208 116.208C24.1614 118.352 22.9167 119.211 20.6685 119.211C17.0189 119.211 15.8322 117.45 15.8322 112.036C15.8322 107.922 16.386 106.503 18.4415 105.35C20.7745 104.041 22.0957 104.251 23.9952 106.229C25.7763 108.085 26.258 108.2 28.6788 107.347C29.5767 107.031 30.6582 106.819 31.0819 106.877C33.1159 107.153 30.0573 102.206 27.2516 100.682C25.7491 99.8651 21.0349 98.7385 19.9787 98.9432C19.8751 98.9632 18.8769 99.131 17.7603 99.3161ZM48.0519 99.5916C47.9535 99.6894 47.8732 105.332 47.8732 112.13V124.491L58.1452 124.391L68.4172 124.29L68.5288 121.751L68.64 119.211H62.0595H55.4787L55.2879 117.8C55.0663 116.161 55.1654 114.646 55.5326 114.053C55.7048 113.775 57.6605 113.656 61.4439 113.696L67.0975 113.755V111.179L67.0979 108.604L61.3493 108.734L55.6008 108.863L55.4877 106.699L55.3746 104.536H61.7553H68.136L68.0123 101.996L67.8891 99.4561L58.0597 99.4347C52.6538 99.4226 48.1499 99.4933 48.0519 99.5916ZM85.0597 99.7244C84.7476 99.9174 84.6262 103.393 84.6262 112.142V124.29H91.7883C99.895 124.29 101.219 124.033 103.601 121.998C105.713 120.194 106.61 118.327 107.095 114.734C107.416 112.354 107.381 111.162 106.921 108.727C105.989 103.795 103.865 101.116 100.044 100.051C98.3816 99.5878 85.7261 99.312 85.0597 99.7244ZM123.417 99.7895C123.294 100.11 123.254 104.314 123.33 109.132C123.484 118.99 123.807 120.409 126.34 122.337C128.933 124.311 130.698 124.838 134.761 124.849C139.132 124.86 141.405 124.214 143.606 122.333C146.536 119.83 146.789 118.444 146.684 105.477L146.635 99.4561L143.525 99.5253C141.815 99.5633 140.203 99.6059 139.944 99.6194C139.586 99.6382 139.466 101.297 139.445 106.511C139.41 115.32 139.153 117.184 137.815 118.332C136.382 119.563 133.683 119.55 132.122 118.305L130.991 117.402L130.803 108.489L130.614 99.5761L127.127 99.3921C124.215 99.2382 123.604 99.3037 123.417 99.7895ZM163.785 101.321C163.662 102.365 163.611 107.96 163.673 113.755L163.786 124.29L167.462 124.398L171.137 124.506L171.209 121.952C171.249 120.548 171.26 118.976 171.234 118.458C171.208 117.941 171.264 116.986 171.359 116.337L171.532 115.156L175.392 115.014C178.786 114.888 179.467 114.745 181.038 113.826C183.516 112.377 184.493 110.442 184.507 106.954C184.517 104.67 184.372 104.071 183.482 102.729C181.642 99.9539 180.615 99.6747 171.748 99.54L164.01 99.4222L163.785 101.321ZM176.008 104.636C177.828 105.563 177.969 108.441 176.249 109.566C175.04 110.357 171.942 110.491 171.486 109.772C171.095 109.155 171.015 104.783 171.388 104.411C171.813 103.986 175.042 104.143 176.008 104.636ZM96.8662 105.471C97.4614 105.778 98.3262 106.559 98.7879 107.206C99.52 108.232 99.6255 108.85 99.6142 112.04C99.595 117.469 98.9617 118.399 94.8748 118.998C91.9982 119.42 91.9768 119.367 91.9768 111.89C91.9768 108.328 92.0898 105.301 92.2282 105.163C92.6907 104.701 95.7712 104.906 96.8662 105.471Z" fill="#DC3C43"/>
</svg>
